<svg xmlns="http://www.w3.org/2000/svg" xmlns:xlink="http://www.w3.org/1999/xlink" id="Capa_1" x="0px" y="0px" viewBox="0 0 528.6 341.5" style="enable-background:new 0 0 528.6 341.5;" xml:space="preserve"><style type="text/css">	.st0{fill:#439F38;}	.st1{fill:#FFFFFF;}</style><path class="st0" d="M167.2,104.6c0,0,69.2,22.9,66,104.6c-2.6,68.1-37.9,90.6-37.9,90.6l64.9,1.9v28.9L116.5,331l-0.3-21.9 c0,0,84.9-18.1,92.6-102.5c7.7-84.4-108.4-120.9-184.7-29.1c5.1-33,54.9-72.9,64.7-75c-15-6.9-42.9-14.1-74.6-5.1 c45-35.1,101.6-23.1,101.6-23.1s1.7-44.1-48.4-57.9c45.9-9.4,82.3,32.1,81,41.6c22.3-58.3,58.7-54.4,58.7-54.4s-40.7,36.4-33.4,70.3 c17.1-12,70.7-4.3,93,23.6C213.1,74.1,167.2,104.6,167.2,104.6z"></path><path class="st0" d="M186.5,197.1c0,0,6-51-66-53.6c-68.1,6.4-88.3,62.6-91.3,72.9c-3,10.3-16.3,69.9,46.7,75s92.6-17.1,112.7-78 c-7.7,0.4-67.7,1.3-67.7,1.3l-5.1,27h12.4c0,0-3.4,19.7-22.3,18.4s-20.6-12-17.6-25.7c3-13.7,7.7-38.1,18-47.6s36-13.3,42.9,1.7 c1.3,3.9,3,9.4,3,9.4L186.5,197.1z"></path><polygon class="st0" points="259.9,187.9 280.1,187.9 256,277.3 235.8,277.6 "></polygon><polygon class="st0" points="276.9,223.3 296.9,223.3 283.4,277.6 262.8,277.6 "></polygon><polygon class="st0" points="312,207.2 331.9,208.2 327.4,223 333.8,223 330.3,240 323.2,239 313.2,277.3 293,277.3 303.9,239.7  298.5,239 302.3,223 308.4,223.3 "></polygon><path class="st0" d="M373.6,225.8c-10.1-7.9-26.9-3.1-37.7,10.7c-10.7,13.8-11.2,31.3-1.1,39.1c10.1,7.9,26.9,3.1,37.7-10.7 C383.1,251.2,383.6,233.6,373.6,225.8z M360.5,251.6c-2.4,6.9-6.6,11.8-9.2,10.8s-2.8-7.3-0.4-14.2c2.4-6.9,6.6-11.8,9.2-10.8 S363,244.7,360.5,251.6z"></path><path class="st1" d="M483.5,186.2c-4.9-3.8-13-1.5-18.2,5.2s-5.4,15.1-0.5,18.9c4.9,3.8,13,1.5,18.2-5.2S488.4,190,483.5,186.2z  M477.2,198.7c-1.2,3.3-3.2,5.7-4.5,5.2c-1.3-0.5-1.4-3.5-0.2-6.9c1.2-3.3,3.2-5.7,4.5-5.2C478.3,192.2,478.4,195.3,477.2,198.7z"></path><path class="st0" d="M392.6,223.3L413,223l-3.1,9.1c0,0,10.1-11.8,17.6-9.4c-1.8,5.9-6.4,22-6.4,22s-10-7.6-14.7,6.2 s-7.5,26.6-7.5,26.6l-21.1,0.2L392.6,223.3z"></path><path class="st1" d="M375.7,185.2l9.3-0.1l-1.4,4.1c0,0,4.6-5.4,8-4.3c-0.8,2.7-2.9,10-2.9,10s-4.5-3.5-6.7,2.8 c-2.1,6.3-3.4,12.1-3.4,12.1l-9.6,0.1L375.7,185.2z"></path><path class="st0" d="M459.7,223.5l-1.6,7.1c-1.4-3.6-4.8-5.6-4.8-5.6s-4.7-3.8-12.2-1.1s-13.2,9.5-17.7,24 c-4.5,14.5-3.6,27.4,6.2,29.6c9.9,2.1,17.7-7.7,17.7-7.7l-2.7,7.8l20.6-0.1l14.5-53.9L459.7,223.5z M451.8,251.9 c-2.2,6.3-6,10.8-8.4,9.9c-2.4-0.9-2.6-6.7-0.3-13c2.2-6.3,6-10.8,8.4-9.9C453.8,239.8,454,245.6,451.8,251.9z"></path><polygon class="st0" points="495.2,192.8 515.1,193.1 492.6,277 472.4,277 "></polygon><path class="st1" d="M356.6,185.9l9.5-3.3c0,0-3.6-13-15.8-7.1c-12.1,5.9-14.7,19.6-12.6,28.2c2,8.6,15.1,6.4,18.6,2.9 c3.5-3.5,8.4-12.5,8.9-17.7c-2.4,0.4-13.6,0.5-13.6,0.5l-1.9,6.9l4.1,0.1c0,0-2.8,7.1-6.1,4.7c-3.3-2.4-0.1-15.3,4.6-18.1 C356.1,182.6,356.6,185.9,356.6,185.9z"></path><path class="st1" d="M400.8,185h9.4c0,0-5.6,17.7-2.8,17.6c2.8-0.1,2.5-1.2,3.5-5.1c1.1-4,3.5-12.8,3.5-12.8l8.9,0.2l-6.1,19.6 c0,0-4.5,5.9-12,5c-7.5-0.9-8.7-4.1-7.2-11.2S400.8,185,400.8,185z"></path><path class="st1" d="M450.3,185c-6.1-1-6.9,2.4-6.9,2.4v-2.8l-9.2,0.1l-9.1,35.5l9.2,0.4c0,0,1.5-7.2,3.4-14 c-0.1,0.8,4.5,5.9,11.1,0C455.5,200.7,456.4,186,450.3,185z M444,197.9c-0.6,2.8-2,4.8-3.1,4.6s-1.4-2.7-0.8-5.5 c0.6-2.8,2-4.8,3.1-4.6S444.6,195.1,444,197.9z"></path><ellipse transform="matrix(0.6051 -0.7961 0.7961 0.6051 -49.0164 314.325)" class="st0" cx="292.4" cy="206.6" rx="13.3" ry="10.7"></ellipse></svg>